<?xml version="1.0" encoding="utf-8"?>
<!-- Generator: Adobe Illustrator 27.8.1, SVG Export Plug-In . SVG Version: 6.00 Build 0)  -->
<svg version="1.1" id="Layer_7" xmlns="http://www.w3.org/2000/svg" xmlns:xlink="http://www.w3.org/1999/xlink" x="0px" y="0px"
	 width="820px" height="444.786px" viewBox="0 0 820 444.786" style="enable-background:new 0 0 820 444.786;" xml:space="preserve"
	>
<style type="text/css">
	.st0{fill:#F5F5F5;}
	.st1{fill:#FFFFFF;}
	.st2{fill:url(#SVGID_1_);}
	.st3{fill:#333333;}
</style>
<rect x="110.553" y="22.938" class="st0" width="669.148" height="387.842"/>
<g>
	<path class="st1" d="M779.805,368.461H111.08c-0.552,0-1-0.448-1-1s0.448-1,1-1h668.725c0.553,0,1,0.448,1,1
		S780.357,368.461,779.805,368.461z"/>
	<path class="st1" d="M779.805,325.82H111.08c-0.552,0-1-0.448-1-1s0.448-1,1-1h668.725c0.553,0,1,0.448,1,1
		S780.357,325.82,779.805,325.82z"/>
	<path class="st1" d="M779.805,283.18H111.08c-0.552,0-1-0.448-1-1s0.448-1,1-1h668.725c0.553,0,1,0.448,1,1
		S780.357,283.18,779.805,283.18z"/>
	<path class="st1" d="M779.805,240.539H111.08c-0.552,0-1-0.448-1-1s0.448-1,1-1h668.725c0.553,0,1,0.448,1,1
		S780.357,240.539,779.805,240.539z"/>
	<path class="st1" d="M779.805,197.898H111.08c-0.552,0-1-0.448-1-1s0.448-1,1-1h668.725c0.553,0,1,0.448,1,1
		S780.357,197.898,779.805,197.898z"/>
	<path class="st1" d="M779.805,155.258H111.08c-0.552,0-1-0.448-1-1s0.448-1,1-1h668.725c0.553,0,1,0.448,1,1
		S780.357,155.258,779.805,155.258z"/>
	<path class="st1" d="M779.805,112.617H111.08c-0.552,0-1-0.448-1-1s0.448-1,1-1h668.725c0.553,0,1,0.448,1,1
		S780.357,112.617,779.805,112.617z"/>
	<path class="st1" d="M779.805,69.977H111.08c-0.552,0-1-0.448-1-1s0.448-1,1-1h668.725c0.553,0,1,0.448,1,1
		S780.357,69.977,779.805,69.977z"/>
</g>
<linearGradient id="SVGID_1_" gradientUnits="userSpaceOnUse" x1="140.1748" y1="257.15" x2="754.3083" y2="257.15" gradientTransform="matrix(-1 0 0 1 894.4832 0)">
	<stop  offset="0" style="stop-color:#00B4E5"/>
	<stop  offset="1" style="stop-color:#1CD0BB"/>
</linearGradient>
<path class="st2" d="M689.207,378.153h65.102v33.02h-65.102V378.153z M610.773,411.173h65.102v-74.274h-65.102V411.173z
	 M532.34,411.173h65.102v-96.174H532.34V411.173z M453.907,411.173h65.102V291.061h-65.102V411.173z M375.474,411.173h65.102
	v-113.49h-65.102V411.173z M297.041,411.173h65.102V254.391h-65.102V411.173z M218.608,411.173h65.102v-260.68h-65.102V411.173z
	 M140.175,411.173h65.102V103.127h-65.102V411.173z"/>
<g>
	<g>
		<path class="st3" d="M71.879,369.568l0.912-1.068c0.672,0.624,1.379,1.008,2.159,1.008c1.008,0,1.667-0.576,1.667-1.451v-0.024
			c0-0.852-0.72-1.392-1.739-1.392c-0.6,0-1.115,0.168-1.547,0.372l-0.888-0.588l0.24-4.114h5.025v1.308h-3.754l-0.132,1.967
			c0.396-0.144,0.768-0.24,1.331-0.24c1.631,0,2.926,0.863,2.926,2.638v0.024c0,1.715-1.259,2.843-3.118,2.843
			C73.678,370.851,72.671,370.335,71.879,369.568z"/>
	</g>
</g>
<g>
	<g>
		<path class="st3" d="M545.08,431.326l2.891-2.458c1.151-0.983,1.571-1.512,1.571-2.267c0-0.828-0.588-1.308-1.355-1.308
			s-1.295,0.42-1.931,1.26l-1.056-0.828c0.804-1.115,1.595-1.751,3.094-1.751c1.644,0,2.771,1.008,2.771,2.507v0.023
			c0,1.319-0.695,2.039-2.183,3.251l-1.727,1.438h3.993v1.296h-6.068V431.326z"/>
		<path class="st3" d="M553.132,428.316v-0.024c0-2.398,1.464-4.341,3.67-4.341c2.195,0,3.646,1.919,3.646,4.317v0.023
			c0,2.399-1.463,4.342-3.67,4.342S553.132,430.715,553.132,428.316z M558.925,428.316v-0.024c0-1.654-0.852-3.01-2.146-3.01
			c-1.296,0-2.123,1.319-2.123,2.986v0.023c0,1.655,0.84,3.011,2.146,3.011C558.109,431.303,558.925,429.959,558.925,428.316z"/>
		<path class="st3" d="M562.204,431.326l2.891-2.458c1.151-0.983,1.571-1.512,1.571-2.267c0-0.828-0.588-1.308-1.355-1.308
			s-1.295,0.42-1.931,1.26l-1.056-0.828c0.804-1.115,1.595-1.751,3.094-1.751c1.644,0,2.771,1.008,2.771,2.507v0.023
			c0,1.319-0.695,2.039-2.183,3.251l-1.727,1.438h3.993v1.296h-6.068V431.326z"/>
		<path class="st3" d="M570.136,431.351l0.912-1.067c0.672,0.624,1.379,1.008,2.158,1.008c1.008,0,1.668-0.576,1.668-1.451v-0.024
			c0-0.852-0.72-1.392-1.739-1.392c-0.6,0-1.115,0.168-1.547,0.372l-0.888-0.588l0.239-4.113h5.025v1.308h-3.754l-0.132,1.967
			c0.396-0.145,0.768-0.24,1.331-0.24c1.632,0,2.927,0.863,2.927,2.639v0.023c0,1.716-1.26,2.843-3.118,2.843
			C571.936,432.634,570.928,432.118,570.136,431.351z"/>
	</g>
</g>
<g>
	<g>
		<path class="st3" d="M627.442,431.326l2.891-2.458c1.151-0.983,1.571-1.512,1.571-2.267c0-0.828-0.588-1.308-1.355-1.308
			s-1.295,0.42-1.931,1.26l-1.056-0.828c0.804-1.115,1.595-1.751,3.094-1.751c1.644,0,2.771,1.008,2.771,2.507v0.023
			c0,1.319-0.695,2.039-2.183,3.251l-1.727,1.438h3.993v1.296h-6.068V431.326z"/>
		<path class="st3" d="M635.494,428.316v-0.024c0-2.398,1.464-4.341,3.67-4.341c2.195,0,3.646,1.919,3.646,4.317v0.023
			c0,2.399-1.463,4.342-3.67,4.342S635.494,430.715,635.494,428.316z M641.287,428.316v-0.024c0-1.654-0.852-3.01-2.146-3.01
			c-1.296,0-2.123,1.319-2.123,2.986v0.023c0,1.655,0.84,3.011,2.146,3.011C640.472,431.303,641.287,429.959,641.287,428.316z"/>
		<path class="st3" d="M644.566,431.326l2.891-2.458c1.151-0.983,1.571-1.512,1.571-2.267c0-0.828-0.588-1.308-1.355-1.308
			s-1.295,0.42-1.931,1.26l-1.056-0.828c0.804-1.115,1.595-1.751,3.094-1.751c1.644,0,2.771,1.008,2.771,2.507v0.023
			c0,1.319-0.695,2.039-2.183,3.251l-1.727,1.438h3.993v1.296h-6.068V431.326z"/>
		<path class="st3" d="M653.638,431.746c-0.636-0.636-1.02-1.511-1.02-3.202v-0.023c0-2.567,1.224-4.569,3.599-4.569
			c1.091,0,1.835,0.348,2.566,0.935l-0.792,1.14c-0.587-0.456-1.079-0.731-1.822-0.731c-1.464,0-1.991,1.523-2.016,2.675
			c0.492-0.516,1.115-0.852,2.016-0.852c1.619,0,2.926,0.959,2.926,2.639v0.023c0,1.667-1.355,2.854-3.118,2.854
			C654.945,432.634,654.201,432.311,653.638,431.746z M657.62,429.84v-0.024c0-0.84-0.672-1.463-1.716-1.463
			c-1.043,0-1.703,0.671-1.703,1.475v0.024c0,0.852,0.696,1.499,1.739,1.499C656.984,431.351,657.62,430.703,657.62,429.84z"/>
	</g>
</g>
<g>
	<g>
		<path class="st3" d="M706.331,431.326l2.89-2.458c1.151-0.983,1.571-1.512,1.571-2.267c0-0.828-0.588-1.308-1.355-1.308
			s-1.295,0.42-1.931,1.26l-1.056-0.828c0.804-1.115,1.596-1.751,3.095-1.751c1.643,0,2.771,1.008,2.771,2.507v0.023
			c0,1.319-0.695,2.039-2.183,3.251l-1.728,1.438h3.994v1.296h-6.068V431.326z"/>
		<path class="st3" d="M714.383,428.316v-0.024c0-2.398,1.463-4.341,3.67-4.341c2.194,0,3.646,1.919,3.646,4.317v0.023
			c0,2.399-1.463,4.342-3.67,4.342C715.822,432.634,714.383,430.715,714.383,428.316z M720.176,428.316v-0.024
			c0-1.654-0.852-3.01-2.147-3.01c-1.295,0-2.123,1.319-2.123,2.986v0.023c0,1.655,0.84,3.011,2.147,3.011
			C719.359,431.303,720.176,429.959,720.176,428.316z"/>
		<path class="st3" d="M723.455,431.326l2.89-2.458c1.151-0.983,1.571-1.512,1.571-2.267c0-0.828-0.588-1.308-1.355-1.308
			s-1.295,0.42-1.931,1.26l-1.056-0.828c0.804-1.115,1.596-1.751,3.095-1.751c1.643,0,2.771,1.008,2.771,2.507v0.023
			c0,1.319-0.695,2.039-2.183,3.251l-1.728,1.438h3.994v1.296h-6.068V431.326z"/>
		<path class="st3" d="M735.764,425.39h-4.222v-1.295h5.901v1.115l-3.778,7.28h-1.667L735.764,425.39z"/>
	</g>
</g>
<g>
	<g>
		<path class="st3" d="M151.639,431.326l2.89-2.458c1.151-0.983,1.571-1.512,1.571-2.267c0-0.828-0.588-1.308-1.355-1.308
			s-1.295,0.42-1.931,1.26l-1.056-0.828c0.804-1.115,1.595-1.751,3.094-1.751c1.643,0,2.771,1.008,2.771,2.507v0.023
			c0,1.319-0.695,2.039-2.183,3.251l-1.727,1.438h3.994v1.296h-6.068V431.326z"/>
		<path class="st3" d="M159.69,428.316v-0.024c0-2.398,1.463-4.341,3.67-4.341c2.195,0,3.646,1.919,3.646,4.317v0.023
			c0,2.399-1.463,4.342-3.67,4.342C161.13,432.634,159.69,430.715,159.69,428.316z M165.483,428.316v-0.024
			c0-1.654-0.852-3.01-2.147-3.01s-2.123,1.319-2.123,2.986v0.023c0,1.655,0.839,3.011,2.146,3.011
			C164.668,431.303,165.483,429.959,165.483,428.316z"/>
		<path class="st3" d="M168.763,431.326l2.89-2.458c1.151-0.983,1.571-1.512,1.571-2.267c0-0.828-0.588-1.308-1.355-1.308
			s-1.295,0.42-1.931,1.26l-1.056-0.828c0.804-1.115,1.595-1.751,3.094-1.751c1.643,0,2.771,1.008,2.771,2.507v0.023
			c0,1.319-0.695,2.039-2.183,3.251l-1.727,1.438h3.994v1.296h-6.068V431.326z"/>
		<path class="st3" d="M176.814,428.316v-0.024c0-2.398,1.463-4.341,3.67-4.341c2.195,0,3.646,1.919,3.646,4.317v0.023
			c0,2.399-1.463,4.342-3.67,4.342C178.254,432.634,176.814,430.715,176.814,428.316z M182.607,428.316v-0.024
			c0-1.654-0.852-3.01-2.147-3.01s-2.123,1.319-2.123,2.986v0.023c0,1.655,0.839,3.011,2.146,3.011
			C181.792,431.303,182.607,429.959,182.607,428.316z"/>
	</g>
</g>
<g>
	<g>
		<path class="st3" d="M230.163,431.326l2.89-2.458c1.151-0.983,1.571-1.512,1.571-2.267c0-0.828-0.588-1.308-1.355-1.308
			s-1.295,0.42-1.931,1.26l-1.056-0.828c0.804-1.115,1.595-1.751,3.094-1.751c1.643,0,2.771,1.008,2.771,2.507v0.023
			c0,1.319-0.695,2.039-2.183,3.251l-1.727,1.438h3.994v1.296h-6.068V431.326z"/>
		<path class="st3" d="M238.214,428.316v-0.024c0-2.398,1.463-4.341,3.67-4.341c2.195,0,3.646,1.919,3.646,4.317v0.023
			c0,2.399-1.463,4.342-3.67,4.342C239.654,432.634,238.214,430.715,238.214,428.316z M244.007,428.316v-0.024
			c0-1.654-0.852-3.01-2.147-3.01s-2.123,1.319-2.123,2.986v0.023c0,1.655,0.839,3.011,2.146,3.011
			C243.192,431.303,244.007,429.959,244.007,428.316z"/>
		<path class="st3" d="M247.287,431.326l2.89-2.458c1.151-0.983,1.571-1.512,1.571-2.267c0-0.828-0.588-1.308-1.355-1.308
			s-1.295,0.42-1.931,1.26l-1.056-0.828c0.804-1.115,1.595-1.751,3.094-1.751c1.643,0,2.771,1.008,2.771,2.507v0.023
			c0,1.319-0.695,2.039-2.183,3.251l-1.727,1.438h3.994v1.296h-6.068V431.326z"/>
		<path class="st3" d="M256.79,425.534l-1.511,0.419l-0.312-1.199l2.267-0.72h1.02v8.456h-1.463V425.534z"/>
	</g>
</g>
<g>
	<g>
		<path class="st3" d="M308.418,431.326l2.89-2.458c1.151-0.983,1.571-1.512,1.571-2.267c0-0.828-0.588-1.308-1.355-1.308
			s-1.295,0.42-1.931,1.26l-1.056-0.828c0.804-1.115,1.595-1.751,3.094-1.751c1.643,0,2.771,1.008,2.771,2.507v0.023
			c0,1.319-0.695,2.039-2.183,3.251l-1.727,1.438h3.994v1.296h-6.068V431.326z"/>
		<path class="st3" d="M316.47,428.316v-0.024c0-2.398,1.463-4.341,3.67-4.341c2.195,0,3.646,1.919,3.646,4.317v0.023
			c0,2.399-1.463,4.342-3.67,4.342C317.91,432.634,316.47,430.715,316.47,428.316z M322.263,428.316v-0.024
			c0-1.654-0.852-3.01-2.147-3.01s-2.123,1.319-2.123,2.986v0.023c0,1.655,0.839,3.011,2.146,3.011
			C321.448,431.303,322.263,429.959,322.263,428.316z"/>
		<path class="st3" d="M325.542,431.326l2.89-2.458c1.151-0.983,1.571-1.512,1.571-2.267c0-0.828-0.588-1.308-1.355-1.308
			s-1.295,0.42-1.931,1.26l-1.056-0.828c0.804-1.115,1.595-1.751,3.094-1.751c1.643,0,2.771,1.008,2.771,2.507v0.023
			c0,1.319-0.695,2.039-2.183,3.251l-1.727,1.438h3.994v1.296h-6.068V431.326z"/>
		<path class="st3" d="M333.499,431.326l2.89-2.458c1.151-0.983,1.571-1.512,1.571-2.267c0-0.828-0.588-1.308-1.355-1.308
			s-1.295,0.42-1.931,1.26l-1.056-0.828c0.804-1.115,1.595-1.751,3.094-1.751c1.643,0,2.771,1.008,2.771,2.507v0.023
			c0,1.319-0.695,2.039-2.183,3.251l-1.727,1.438h3.994v1.296h-6.068V431.326z"/>
	</g>
</g>
<g>
	<g>
		<path class="st3" d="M389.949,431.326l2.89-2.458c1.151-0.983,1.571-1.512,1.571-2.267c0-0.828-0.588-1.308-1.355-1.308
			s-1.295,0.42-1.931,1.26l-1.056-0.828c0.804-1.115,1.595-1.751,3.094-1.751c1.643,0,2.771,1.008,2.771,2.507v0.023
			c0,1.319-0.695,2.039-2.183,3.251l-1.727,1.438h3.994v1.296h-6.068V431.326z"/>
		<path class="st3" d="M398,428.316v-0.024c0-2.398,1.463-4.341,3.67-4.341c2.195,0,3.646,1.919,3.646,4.317v0.023
			c0,2.399-1.463,4.342-3.67,4.342C399.44,432.634,398,430.715,398,428.316z M403.793,428.316v-0.024c0-1.654-0.852-3.01-2.147-3.01
			s-2.123,1.319-2.123,2.986v0.023c0,1.655,0.839,3.011,2.146,3.011C402.978,431.303,403.793,429.959,403.793,428.316z"/>
		<path class="st3" d="M407.073,431.326l2.89-2.458c1.151-0.983,1.571-1.512,1.571-2.267c0-0.828-0.588-1.308-1.355-1.308
			s-1.295,0.42-1.931,1.26l-1.056-0.828c0.804-1.115,1.595-1.751,3.094-1.751c1.643,0,2.771,1.008,2.771,2.507v0.023
			c0,1.319-0.695,2.039-2.183,3.251l-1.727,1.438h3.994v1.296h-6.069V431.326z"/>
		<path class="st3" d="M414.957,431.159l1.031-0.96c0.6,0.708,1.271,1.104,2.207,1.104c0.827,0,1.451-0.504,1.451-1.271v-0.023
			c0-0.828-0.756-1.296-1.931-1.296h-0.684l-0.24-0.923l2.267-2.411h-3.634v-1.283h5.553v1.104l-2.339,2.398
			c1.271,0.156,2.471,0.804,2.471,2.351v0.024c0,1.547-1.188,2.662-2.938,2.662C416.708,432.634,415.664,432.022,414.957,431.159z"
			/>
	</g>
</g>
<g>
	<g>
		<path class="st3" d="M464.24,431.326l2.891-2.458c1.15-0.983,1.57-1.512,1.57-2.267c0-0.828-0.588-1.308-1.355-1.308
			s-1.295,0.42-1.93,1.26l-1.057-0.828c0.805-1.115,1.596-1.751,3.095-1.751c1.644,0,2.771,1.008,2.771,2.507v0.023
			c0,1.319-0.695,2.039-2.183,3.251l-1.728,1.438h3.994v1.296h-6.068V431.326z"/>
		<path class="st3" d="M472.292,428.316v-0.024c0-2.398,1.464-4.341,3.67-4.341c2.194,0,3.646,1.919,3.646,4.317v0.023
			c0,2.399-1.463,4.342-3.67,4.342C473.731,432.634,472.292,430.715,472.292,428.316z M478.085,428.316v-0.024
			c0-1.654-0.852-3.01-2.147-3.01c-1.295,0-2.122,1.319-2.122,2.986v0.023c0,1.655,0.839,3.011,2.146,3.011
			S478.085,429.959,478.085,428.316z"/>
		<path class="st3" d="M481.364,431.326l2.89-2.458c1.152-0.983,1.572-1.512,1.572-2.267c0-0.828-0.588-1.308-1.355-1.308
			s-1.296,0.42-1.932,1.26l-1.055-0.828c0.803-1.115,1.595-1.751,3.094-1.751c1.643,0,2.771,1.008,2.771,2.507v0.023
			c0,1.319-0.695,2.039-2.183,3.251l-1.727,1.438h3.993v1.296h-6.068V431.326z"/>
		<path class="st3" d="M493.434,430.607h-4.234l-0.275-1.056l4.666-5.518h1.259v5.361h1.199v1.212h-1.199v1.883h-1.415V430.607z
			 M493.434,429.396v-3.322l-2.759,3.322H493.434z"/>
	</g>
</g>
<g>
	<g>
		<path class="st3" d="M70.168,320.765l-1.511,0.419l-0.312-1.199l2.267-0.72h1.02v8.456h-1.463V320.765z"/>
		<path class="st3" d="M74.069,323.547v-0.024c0-2.398,1.463-4.341,3.67-4.341c2.195,0,3.646,1.919,3.646,4.317v0.024
			c0,2.399-1.463,4.342-3.67,4.342C75.508,327.865,74.069,325.946,74.069,323.547z M79.862,323.547v-0.024
			c0-1.655-0.852-3.01-2.147-3.01s-2.123,1.319-2.123,2.986v0.024c0,1.655,0.839,3.01,2.146,3.01
			C79.046,326.533,79.862,325.19,79.862,323.547z"/>
	</g>
</g>
<g>
	<g>
		<path class="st3" d="M70.774,277.778l-1.511,0.419l-0.312-1.199l2.267-0.72h1.02v8.456h-1.463V277.778z"/>
		<path class="st3" d="M74.555,283.595l0.912-1.068c0.672,0.624,1.379,1.008,2.159,1.008c1.008,0,1.667-0.576,1.667-1.451v-0.024
			c0-0.852-0.72-1.392-1.739-1.392c-0.6,0-1.115,0.168-1.547,0.372l-0.888-0.588l0.24-4.114h5.025v1.308H76.63l-0.132,1.967
			c0.396-0.144,0.768-0.24,1.331-0.24c1.631,0,2.926,0.863,2.926,2.638v0.024c0,1.715-1.259,2.843-3.118,2.843
			C76.354,284.878,75.347,284.363,74.555,283.595z"/>
	</g>
</g>
<g>
	<g>
		<path class="st3" d="M67.319,240.584l2.89-2.458c1.151-0.983,1.571-1.511,1.571-2.267c0-0.828-0.588-1.308-1.355-1.308
			s-1.295,0.42-1.931,1.26l-1.056-0.828c0.804-1.116,1.595-1.751,3.094-1.751c1.643,0,2.771,1.007,2.771,2.506v0.024
			c0,1.319-0.695,2.039-2.183,3.25l-1.727,1.439h3.994v1.295h-6.068V240.584z"/>
		<path class="st3" d="M75.371,237.574v-0.024c0-2.398,1.463-4.341,3.67-4.341c2.195,0,3.646,1.919,3.646,4.317v0.024
			c0,2.399-1.463,4.342-3.67,4.342C76.811,241.892,75.371,239.973,75.371,237.574z M81.164,237.574v-0.024
			c0-1.655-0.852-3.01-2.147-3.01s-2.123,1.319-2.123,2.986v0.024c0,1.655,0.84,3.01,2.147,3.01S81.164,239.217,81.164,237.574z"/>
	</g>
</g>
<g>
	<g>
		<path class="st3" d="M67.925,197.598l2.89-2.458c1.151-0.983,1.571-1.511,1.571-2.267c0-0.828-0.588-1.308-1.355-1.308
			s-1.295,0.42-1.931,1.26l-1.056-0.828c0.804-1.116,1.595-1.751,3.094-1.751c1.643,0,2.771,1.007,2.771,2.506v0.024
			c0,1.319-0.695,2.039-2.183,3.25L70,197.466h3.994v1.295h-6.068V197.598z"/>
		<path class="st3" d="M75.857,197.623l0.912-1.068c0.672,0.624,1.379,1.008,2.159,1.008c1.008,0,1.667-0.576,1.667-1.451v-0.024
			c0-0.852-0.72-1.392-1.739-1.392c-0.6,0-1.115,0.168-1.547,0.372l-0.887-0.588l0.24-4.114h5.025v1.308h-3.754l-0.132,1.967
			c0.396-0.144,0.768-0.24,1.331-0.24c1.631,0,2.926,0.863,2.926,2.638v0.024c0,1.715-1.259,2.843-3.118,2.843
			C77.656,198.906,76.649,198.39,75.857,197.623z"/>
	</g>
</g>
<g>
	<g>
		<path class="st3" d="M67.217,154.444l1.032-0.959c0.6,0.708,1.271,1.103,2.207,1.103c0.828,0,1.451-0.503,1.451-1.271v-0.024
			c0-0.828-0.755-1.295-1.931-1.295h-0.684l-0.24-0.923l2.267-2.411h-3.634v-1.283h5.553v1.104l-2.339,2.398
			c1.271,0.156,2.471,0.804,2.471,2.351v0.024c0,1.547-1.188,2.663-2.938,2.663C68.968,155.919,67.924,155.308,67.217,154.444z"/>
		<path class="st3" d="M75.401,151.602v-0.024c0-2.398,1.463-4.341,3.67-4.341c2.195,0,3.646,1.919,3.646,4.317v0.024
			c0,2.399-1.463,4.342-3.67,4.342C76.84,155.919,75.401,154,75.401,151.602z M81.194,151.602v-0.024c0-1.655-0.852-3.01-2.147-3.01
			s-2.123,1.319-2.123,2.986v0.024c0,1.655,0.839,3.01,2.146,3.01C80.378,154.588,81.194,153.245,81.194,151.602z"/>
	</g>
</g>
<g>
	<g>
		<path class="st3" d="M67.853,111.458l1.032-0.959c0.6,0.708,1.271,1.103,2.207,1.103c0.828,0,1.451-0.503,1.451-1.271v-0.024
			c0-0.828-0.755-1.295-1.931-1.295h-0.684l-0.24-0.923l2.267-2.411h-3.634v-1.283h5.553v1.104l-2.339,2.398
			c1.271,0.156,2.471,0.804,2.471,2.351v0.024c0,1.547-1.188,2.663-2.938,2.663C69.604,112.933,68.561,112.321,67.853,111.458z"/>
		<path class="st3" d="M75.857,111.649l0.912-1.068c0.672,0.624,1.379,1.008,2.159,1.008c1.008,0,1.667-0.576,1.667-1.451v-0.024
			c0-0.852-0.72-1.392-1.739-1.392c-0.6,0-1.115,0.168-1.547,0.372l-0.887-0.588l0.24-4.114h5.025v1.308h-3.754l-0.132,1.967
			c0.396-0.144,0.768-0.24,1.331-0.24c1.631,0,2.926,0.863,2.926,2.638v0.024c0,1.715-1.259,2.843-3.118,2.843
			C77.656,112.933,76.649,112.417,75.857,111.649z"/>
	</g>
</g>
<g>
	<g>
		<path class="st3" d="M71.259,67.919h-4.234l-0.276-1.056l4.666-5.517h1.259v5.361h1.199v1.211h-1.199v1.883h-1.415V67.919z
			 M71.259,66.708v-3.322L68.5,66.708H71.259z"/>
		<path class="st3" d="M75.785,65.628v-0.024c0-2.398,1.463-4.341,3.67-4.341c2.195,0,3.646,1.919,3.646,4.317v0.024
			c0,2.399-1.463,4.342-3.67,4.342C77.224,69.946,75.785,68.027,75.785,65.628z M81.578,65.628v-0.024
			c0-1.655-0.852-3.01-2.147-3.01s-2.123,1.319-2.123,2.986v0.024c0,1.655,0.839,3.01,2.146,3.01
			C80.762,68.615,81.578,67.271,81.578,65.628z"/>
	</g>
</g>
</svg>
